<svg width="280" height="66" viewBox="0 0 280 66" fill="none" xmlns="http://www.w3.org/2000/svg">
<path d="M27.7894 61.9934C26.044 56.7186 32.5808 43.3432 36.0674 37.3149C30.4325 46.4696 27.5722 52.9025 26.3552 57.3161C24.6761 63.4054 31.2741 64.9591 34.0855 59.3027C34.6085 58.2504 35.0207 57.2519 35.2973 56.4674L31.5113 57.9745C30.3819 60.1849 28.5595 61.5747 27.7894 61.9934Z" fill="url(#paint0_linear_1_1747)"/>
<path d="M27.791 61.9951C29.172 61.2345 30.8107 59.3902 31.5012 57.9959C33.1334 57.3621 33.5385 57.2614 33.8524 57.198C32.9622 59.3617 31.63 61.2415 30.4646 62.439C29.589 63.3387 28.1846 63.1872 27.791 61.9951Z" fill="url(#paint1_linear_1_1747)"/>
<path d="M46.6755 31.0471C45.3565 26.0106 41.6661 24.3108 41.4758 26.1995C39.954 30.4805 37.5444 34.6566 36.5298 36.2095C28.1273 52.1766 31.8798 57.0479 33.613 57.2998C48.7807 51.3567 48.6834 37.3007 46.6755 31.0471Z" fill="url(#paint2_linear_1_1747)"/>
<path d="M23.5857 23.1182C23.5605 23.277 23.534 23.4296 23.5062 23.5756C23.5338 23.4225 23.5603 23.27 23.5857 23.1182C24.3097 18.5526 23.8791 8.86354 16.7136 3.14098C16.2692 4.08996 16.2946 6.92423 18.6816 12.1879L16.3962 15.9205C14.259 12.1246 10.4923 2.3818 13.7934 0.167525C16.8115 -1.33634 26.2191 7.36297 23.5857 23.1182Z" fill="url(#paint3_radial_1_1747)"/>
<path d="M14.3467 3.02119C15.0887 2.52424 16.5774 2.90294 16.8247 3.21354C16.1321 5.6983 17.7889 10.1649 18.737 12.2148L16.9583 15.1446C13.4955 7.09398 13.5428 3.76662 14.3467 3.02119Z" fill="url(#paint4_linear_1_1747)"/>
<path d="M32.4615 28.8716C33.4753 14.4396 26.3364 4.75533 22.6403 1.71722C39.9257 11.3721 45.7678 25.1002 46.5281 30.7574C44.1964 22.8122 36.1788 26.1897 32.4615 28.8716Z" fill="url(#paint5_linear_1_1747)"/>
<path opacity="0.25" d="M43.4053 26.3616C40.3849 17.7425 31.1136 9.48466 26.8556 6.55766C32.4561 14.8404 32.8756 24.2649 32.519 28.7281C37.0497 25.6765 40.4478 24.9915 43.4053 26.3616Z" fill="url(#paint6_linear_1_1747)"/>
<path d="M41.7987 26.6982C45.9443 32.2012 50.3832 45.5261 34.9744 54.8015C36.6539 46.1269 40.37 28.3617 41.7987 26.6982Z" fill="url(#paint7_linear_1_1747)"/>
<path d="M33.6221 57.2976C30.5318 54.3369 34.1283 42.3353 36.2959 36.6562C28.8791 50.1838 27.2907 56.5596 27.5566 58.72C31.2907 58.3372 31.1112 58.0634 33.6221 57.2976Z" fill="#27569F"/>
<path d="M21.5456 57.9244C20.8324 47.8841 25.6212 36.6707 28.1047 32.3191C11.293 40.2908 6.62302 35.6406 6.38952 32.3191C2.41582 49.2715 14.8379 56.4528 21.5456 57.9244Z" fill="url(#paint8_linear_1_1747)"/>
<path d="M21.5373 56.2069C21.3478 46.8023 25.684 36.3735 28.1047 32.3191C14.7804 38.2127 9.85481 37.1468 7.70776 34.827C5.88909 48.5703 16.2118 54.7858 21.5373 56.2069Z" fill="url(#paint9_linear_1_1747)"/>
<path d="M6.40271 32.4307C8.39057 25.3388 13.4112 17.9935 17.4251 15.144C22.828 13.4217 23.754 19.2599 23.7328 22.426C22.9172 30.4298 19.1454 35.1114 17.3614 36.3567C10.1618 38.5729 6.59385 35.8501 6.40271 32.4307Z" fill="url(#paint10_linear_1_1747)"/>
<path d="M14.9897 17.3197L21.2641 8.74348C23.8723 12.7209 24.1138 19.3429 23.731 22.2168C22.8416 12.9105 17.5938 14.7924 14.9897 17.3197Z" fill="#148CCC"/>
<path d="M71.2964 21.7186H82.0952V18.5629H65C65 17.4092 65.4626 16.5269 66.3879 15.9162C67.3358 15.3054 68.5883 15 70.1455 15H82.7045C83.3816 15 84.0248 15.0905 84.6341 15.2715C85.2434 15.4524 85.7738 15.7013 86.2251 16.018C86.6991 16.312 87.0714 16.674 87.3422 17.1038C87.6131 17.5336 87.7485 18.0086 87.7485 18.5289V28.4711C87.7485 29.014 87.6131 29.5003 87.3422 29.9301C87.0714 30.3599 86.6991 30.7332 86.2251 31.0499C85.7738 31.344 85.2434 31.5815 84.6341 31.7625C84.0248 31.9208 83.3703 32 82.6707 32H70.1455C69.4233 32 68.7463 31.9321 68.1144 31.7964C67.505 31.6607 66.9634 31.4571 66.4895 31.1856C66.0156 30.8915 65.6432 30.5296 65.3724 30.0998C65.1241 29.6474 65 29.1158 65 28.505H82.0952V25.3154H71.2964V21.7186Z" fill="#2B2E34"/>
<path d="M107.329 32C106.63 32 106.043 31.9434 105.569 31.8303C105.117 31.7172 104.711 31.5815 104.35 31.4232C104.012 31.2648 103.707 31.0838 103.436 30.8802C103.165 30.6766 102.895 30.4844 102.624 30.3034L95.4471 24.1617V28.7425C95.4471 29.3533 95.3004 29.8736 95.007 30.3034C94.7362 30.7106 94.3639 31.0386 93.8899 31.2874C93.416 31.5363 92.8631 31.7172 92.2312 31.8303C91.6219 31.9434 90.9787 32 90.3016 32H89.7939V15H95.4471V22.499L102.827 15H109.089L101.371 22.9741L111.662 32H107.329Z" fill="#2B2E34"/>
<path d="M136.444 28.5729C136.444 29.1836 136.308 29.7039 136.037 30.1337C135.767 30.5409 135.394 30.8915 134.92 31.1856C134.469 31.4571 133.927 31.6607 133.295 31.7964C132.663 31.9321 131.986 32 131.264 32H118.739C118.039 32 117.385 31.9208 116.776 31.7625C116.166 31.5815 115.625 31.344 115.151 31.0499C114.699 30.7332 114.338 30.3713 114.068 29.9641C113.819 29.5343 113.695 29.0479 113.695 28.505V18.4611C113.695 17.9634 113.819 17.4997 114.068 17.0699C114.338 16.6174 114.699 16.2442 115.151 15.9501C115.625 15.6334 116.166 15.3959 116.776 15.2375C117.385 15.0792 118.039 15 118.739 15H131.264C132.799 15 134.04 15.3054 134.988 15.9162C135.958 16.5043 136.444 17.3753 136.444 18.5289V28.5729ZM130.79 18.5629H119.348V28.505H130.79V18.5629Z" fill="#2B2E34"/>
<path d="M155.584 32V25.3154H144.142V32H138.489V18.4611C138.489 17.9634 138.624 17.511 138.895 17.1038C139.166 16.674 139.527 16.312 139.978 16.018C140.452 15.7013 140.994 15.4524 141.603 15.2715C142.213 15.0905 142.867 15 143.567 15H144.142V21.7864H155.618V15H161.237V32H155.584Z" fill="#2B2E34"/>
<path d="M193.768 28.5729C193.768 29.2967 193.576 29.8849 193.192 30.3373C192.831 30.7898 192.369 31.1404 191.804 31.3892C191.263 31.6381 190.653 31.8077 189.976 31.8982C189.322 31.9661 188.701 32 188.115 32H176.266V31.6607C176.266 30.8689 176.469 30.2582 176.876 29.8283C177.304 29.3759 177.79 29.0592 178.331 28.8782C178.896 28.6747 179.471 28.5615 180.058 28.5389C180.667 28.5163 181.141 28.505 181.48 28.505H188.115V25.3154H176.199C175.86 25.3154 175.398 25.338 174.811 25.3832C174.224 25.4059 173.637 25.3606 173.05 25.2475C172.486 25.1118 172.001 24.8516 171.595 24.4671C171.189 24.0599 170.985 23.4378 170.985 22.6008V15.0339H171.459C171.82 15.0339 172.294 15.0566 172.881 15.1018C173.491 15.147 174.066 15.2601 174.608 15.4411C175.172 15.6221 175.657 15.9162 176.063 16.3234C176.469 16.7305 176.673 17.3187 176.673 18.0878V21.7186H188.115V15H193.768V28.5729Z" fill="#2B2E34"/>
<path d="M218.561 21.7186C218.561 22.9175 217.985 23.8224 216.834 24.4331C215.683 25.0213 214.138 25.3154 212.197 25.3154H203.734C203.734 24.9534 203.79 24.5576 203.903 24.1277C204.038 23.6753 204.23 23.2794 204.478 22.9401C204.749 22.6008 205.099 22.318 205.528 22.0918C205.957 21.843 206.464 21.7186 207.051 21.7186H212.874V18.5629H201.466V28.0299C201.466 29.6134 200.98 30.6993 200.01 31.2874C199.514 31.5815 198.949 31.7738 198.317 31.8643C197.686 31.9548 197.042 32 196.388 32H195.812V15H213.382C214.916 15 216.157 15.3054 217.105 15.9162C218.076 16.5269 218.561 17.4092 218.561 18.5629V21.7186Z" fill="#2B2E34"/>
<path d="M220.606 18.5629C220.606 17.4092 221.08 16.5269 222.028 15.9162C222.998 15.3054 224.251 15 225.786 15H248.026C249.561 15 250.802 15.3054 251.75 15.9162C252.72 16.5269 253.206 17.4092 253.206 18.5629V24.3313C253.206 25.5303 252.63 26.4351 251.479 27.0459C250.328 27.6341 248.782 27.9281 246.841 27.9281H239.733V28.0299C239.733 29.6134 239.247 30.6993 238.277 31.2874C237.78 31.5815 237.216 31.7738 236.584 31.8643C235.952 31.9548 235.309 32 234.655 32H234.079V27.9281H226.97C225.03 27.9281 223.484 27.6341 222.333 27.0459C221.182 26.4351 220.606 25.5303 220.606 24.3313V18.5629ZM239.733 24.3313H247.518V18.5629H239.733V24.3313ZM226.293 24.3313H234.079V18.5629H226.293V24.3313Z" fill="#2B2E34"/>
<path d="M278 28.5729C278 29.1836 277.865 29.7039 277.594 30.1337C277.323 30.5409 276.951 30.8915 276.477 31.1856C276.025 31.4571 275.484 31.6607 274.852 31.7964C274.22 31.9321 273.543 32 272.821 32H260.295C259.596 32 258.941 31.9208 258.332 31.7625C257.723 31.5815 257.181 31.344 256.707 31.0499C256.256 30.7332 255.895 30.3713 255.624 29.9641C255.376 29.5343 255.252 29.0479 255.252 28.505V18.4611C255.252 17.9634 255.376 17.4997 255.624 17.0699C255.895 16.6174 256.256 16.2442 256.707 15.9501C257.181 15.6334 257.723 15.3959 258.332 15.2375C258.941 15.0792 259.596 15 260.295 15H272.821C274.355 15 275.597 15.3054 276.544 15.9162C277.515 16.5043 278 17.3753 278 18.5289V28.5729ZM272.347 18.5629H260.905V28.505H272.347V18.5629Z" fill="#2B2E34"/>
<path d="M69.862 54.143C68.7527 54.143 67.7907 53.831 66.976 53.207C66.17 52.583 65.6587 51.829 65.442 50.945H66.716C66.9327 51.543 67.3227 52.037 67.886 52.427C68.458 52.8083 69.1167 52.999 69.862 52.999C70.7893 52.999 71.5823 52.7087 72.241 52.128C72.8997 51.5387 73.2897 50.7933 73.411 49.892H68.653V48.774H73.398C73.2593 47.89 72.865 47.1663 72.215 46.603C71.565 46.031 70.7807 45.745 69.862 45.745C69.1167 45.745 68.458 45.94 67.886 46.33C67.3227 46.7113 66.9327 47.2053 66.716 47.812H65.442C65.6587 46.928 66.17 46.174 66.976 45.55C67.782 44.9173 68.744 44.601 69.862 44.601C71.2227 44.601 72.358 45.0603 73.268 45.979C74.1867 46.889 74.646 48.02 74.646 49.372C74.646 50.724 74.1867 51.8593 73.268 52.778C72.358 53.688 71.2227 54.143 69.862 54.143ZM76.2854 54V47.5H77.4034V50.178H80.9524V47.5H82.0704V54H80.9524V51.192H77.4034V54H76.2854ZM86.9509 54.13C86.0062 54.13 85.2219 53.8093 84.5979 53.168C83.9826 52.5267 83.6749 51.7207 83.6749 50.75C83.6749 49.7707 83.9739 48.9647 84.5719 48.332C85.1786 47.6907 85.9802 47.37 86.9769 47.37C87.9822 47.37 88.7709 47.7253 89.3429 48.436C89.9149 49.1467 90.1662 50.0177 90.0969 51.049H84.8059C84.8232 51.6383 85.0399 52.1323 85.4559 52.531C85.8719 52.921 86.3746 53.116 86.9639 53.116C87.8479 53.116 88.4762 52.752 88.8489 52.024H89.9929C89.8282 52.6307 89.4772 53.1333 88.9399 53.532C88.4026 53.9307 87.7396 54.13 86.9509 54.13ZM88.2249 48.826C87.8696 48.514 87.4406 48.358 86.9379 48.358C86.4352 48.358 85.9846 48.5097 85.5859 48.813C85.1959 49.1163 84.9532 49.567 84.8579 50.165H88.9139C88.8099 49.5757 88.5802 49.1293 88.2249 48.826ZM92.8282 56.717H91.7102V47.5H92.8282V48.501C93.0536 48.1717 93.3699 47.903 93.7772 47.695C94.1932 47.4783 94.6396 47.37 95.1162 47.37C96.0176 47.37 96.7716 47.6993 97.3782 48.358C97.9936 49.0167 98.3012 49.814 98.3012 50.75C98.3012 51.686 97.9936 52.4833 97.3782 53.142C96.7716 53.8007 96.0176 54.13 95.1162 54.13C94.6396 54.13 94.1932 54.026 93.7772 53.818C93.3699 53.6013 93.0536 53.3283 92.8282 52.999V56.717ZM93.3612 52.427C93.7772 52.8777 94.3059 53.103 94.9472 53.103C95.5886 53.103 96.1172 52.8777 96.5332 52.427C96.9492 51.9763 97.1572 51.4173 97.1572 50.75C97.1572 50.0827 96.9492 49.5237 96.5332 49.073C96.1172 48.6223 95.5886 48.397 94.9472 48.397C94.3059 48.397 93.7772 48.6223 93.3612 49.073C92.9452 49.5237 92.7372 50.0827 92.7372 50.75C92.7372 51.4173 92.9452 51.9763 93.3612 52.427ZM99.9114 54V47.5H103.98V48.527H101.029V54H99.9114ZM107.939 54.13C106.96 54.13 106.145 53.805 105.495 53.155C104.854 52.4963 104.533 51.6947 104.533 50.75C104.533 49.8053 104.854 49.008 105.495 48.358C106.145 47.6993 106.96 47.37 107.939 47.37C108.91 47.37 109.716 47.6993 110.357 48.358C111.007 49.008 111.332 49.8053 111.332 50.75C111.332 51.6947 111.007 52.4963 110.357 53.155C109.716 53.805 108.91 54.13 107.939 54.13ZM106.301 52.414C106.726 52.8647 107.272 53.09 107.939 53.09C108.606 53.09 109.148 52.8647 109.564 52.414C109.98 51.9633 110.188 51.4087 110.188 50.75C110.188 50.0913 109.98 49.5367 109.564 49.086C109.148 48.6353 108.606 48.41 107.939 48.41C107.272 48.41 106.726 48.6353 106.301 49.086C105.885 49.5367 105.677 50.0913 105.677 50.75C105.677 51.4087 105.885 51.9633 106.301 52.414ZM115.823 54.13C114.843 54.13 114.033 53.805 113.392 53.155C112.75 52.4963 112.43 51.6947 112.43 50.75C112.43 49.8053 112.75 49.008 113.392 48.358C114.033 47.6993 114.843 47.37 115.823 47.37C116.629 47.37 117.326 47.5953 117.916 48.046C118.505 48.488 118.899 49.0687 119.099 49.788H117.903C117.747 49.3633 117.487 49.0253 117.123 48.774C116.759 48.5227 116.325 48.397 115.823 48.397C115.155 48.397 114.609 48.6223 114.185 49.073C113.769 49.5237 113.561 50.0827 113.561 50.75C113.561 51.4173 113.769 51.9763 114.185 52.427C114.609 52.8777 115.155 53.103 115.823 53.103C116.325 53.103 116.759 52.9773 117.123 52.726C117.487 52.4747 117.747 52.1367 117.903 51.712H119.099C118.908 52.4313 118.518 53.0163 117.929 53.467C117.339 53.909 116.637 54.13 115.823 54.13ZM123.699 54.13C122.677 54.13 121.858 53.792 121.242 53.116C120.636 52.44 120.332 51.5517 120.332 50.451V49.788C120.332 48.1933 120.618 47.0017 121.19 46.213C121.762 45.4157 122.698 44.8913 123.998 44.64L126.416 44.198V45.264L124.245 45.667C123.318 45.8317 122.646 46.1437 122.23 46.603C121.823 47.0623 121.567 47.7383 121.463 48.631C122.027 47.877 122.824 47.5 123.855 47.5C124.835 47.5 125.619 47.812 126.208 48.436C126.806 49.06 127.105 49.8227 127.105 50.724C127.105 51.6773 126.78 52.4833 126.13 53.142C125.489 53.8007 124.679 54.13 123.699 54.13ZM122.087 52.427C122.503 52.869 123.041 53.09 123.699 53.09C124.358 53.09 124.9 52.869 125.324 52.427C125.749 51.985 125.961 51.4173 125.961 50.724C125.961 50.074 125.749 49.5453 125.324 49.138C124.908 48.722 124.375 48.514 123.725 48.514C123.058 48.514 122.512 48.7263 122.087 49.151C121.671 49.567 121.463 50.0913 121.463 50.724C121.463 51.4173 121.671 51.985 122.087 52.427ZM131.473 54.13C130.529 54.13 129.744 53.8093 129.12 53.168C128.505 52.5267 128.197 51.7207 128.197 50.75C128.197 49.7707 128.496 48.9647 129.094 48.332C129.701 47.6907 130.503 47.37 131.499 47.37C132.505 47.37 133.293 47.7253 133.865 48.436C134.437 49.1467 134.689 50.0177 134.619 51.049H129.328C129.346 51.6383 129.562 52.1323 129.978 52.531C130.394 52.921 130.897 53.116 131.486 53.116C132.37 53.116 132.999 52.752 133.371 52.024H134.515C134.351 52.6307 134 53.1333 133.462 53.532C132.925 53.9307 132.262 54.13 131.473 54.13ZM132.747 48.826C132.392 48.514 131.963 48.358 131.46 48.358C130.958 48.358 130.507 48.5097 130.108 48.813C129.718 49.1163 129.476 49.567 129.38 50.165H133.436C133.332 49.5757 133.103 49.1293 132.747 48.826ZM137.351 56.717H136.233V47.5H137.351V48.501C137.576 48.1717 137.892 47.903 138.3 47.695C138.716 47.4783 139.162 47.37 139.639 47.37C140.54 47.37 141.294 47.6993 141.901 48.358C142.516 49.0167 142.824 49.814 142.824 50.75C142.824 51.686 142.516 52.4833 141.901 53.142C141.294 53.8007 140.54 54.13 139.639 54.13C139.162 54.13 138.716 54.026 138.3 53.818C137.892 53.6013 137.576 53.3283 137.351 52.999V56.717ZM137.884 52.427C138.3 52.8777 138.828 53.103 139.47 53.103C140.111 53.103 140.64 52.8777 141.056 52.427C141.472 51.9763 141.68 51.4173 141.68 50.75C141.68 50.0827 141.472 49.5237 141.056 49.073C140.64 48.6223 140.111 48.397 139.47 48.397C138.828 48.397 138.3 48.6223 137.884 49.073C137.468 49.5237 137.26 50.0827 137.26 50.75C137.26 51.4173 137.468 51.9763 137.884 52.427ZM147.203 54.13C146.258 54.13 145.474 53.8093 144.85 53.168C144.235 52.5267 143.927 51.7207 143.927 50.75C143.927 49.7707 144.226 48.9647 144.824 48.332C145.431 47.6907 146.232 47.37 147.229 47.37C148.234 47.37 149.023 47.7253 149.595 48.436C150.167 49.1467 150.418 50.0177 150.349 51.049H145.058C145.075 51.6383 145.292 52.1323 145.708 52.531C146.124 52.921 146.627 53.116 147.216 53.116C148.1 53.116 148.728 52.752 149.101 52.024H150.245C150.08 52.6307 149.729 53.1333 149.192 53.532C148.655 53.9307 147.992 54.13 147.203 54.13ZM148.477 48.826C148.122 48.514 147.693 48.358 147.19 48.358C146.687 48.358 146.237 48.5097 145.838 48.813C145.448 49.1163 145.205 49.567 145.11 50.165H149.166C149.062 49.5757 148.832 49.1293 148.477 48.826ZM151.962 54V47.5H156.031V48.527H153.08V54H151.962ZM159.794 54.13C158.893 54.13 158.135 53.8007 157.519 53.142C156.913 52.4833 156.609 51.686 156.609 50.75C156.609 49.814 156.913 49.0167 157.519 48.358C158.135 47.6993 158.893 47.37 159.794 47.37C160.271 47.37 160.713 47.4783 161.12 47.695C161.536 47.903 161.857 48.1717 162.082 48.501V47.5H163.2V54H162.082V52.999C161.857 53.3283 161.536 53.6013 161.12 53.818C160.713 54.026 160.271 54.13 159.794 54.13ZM159.963 53.103C160.605 53.103 161.133 52.8777 161.549 52.427C161.965 51.9763 162.173 51.4173 162.173 50.75C162.173 50.0827 161.965 49.5237 161.549 49.073C161.133 48.6223 160.605 48.397 159.963 48.397C159.313 48.397 158.78 48.6223 158.364 49.073C157.948 49.5237 157.74 50.0827 157.74 50.75C157.74 51.4173 157.948 51.9763 158.364 52.427C158.78 52.8777 159.313 53.103 159.963 53.103ZM170.895 54.13C170.037 54.13 169.309 53.8527 168.711 53.298C168.122 52.7433 167.775 52.0413 167.671 51.192H166.423V54H165.305V47.5H166.423V50.191H167.684C167.814 49.3677 168.169 48.6917 168.75 48.163C169.339 47.6343 170.054 47.37 170.895 47.37C171.84 47.37 172.62 47.695 173.235 48.345C173.85 48.995 174.158 49.7967 174.158 50.75C174.158 51.7033 173.85 52.505 173.235 53.155C172.62 53.805 171.84 54.13 170.895 54.13ZM169.374 52.414C169.773 52.856 170.28 53.077 170.895 53.077C171.51 53.077 172.017 52.856 172.416 52.414C172.815 51.9633 173.014 51.4087 173.014 50.75C173.014 50.0913 172.815 49.541 172.416 49.099C172.017 48.6483 171.51 48.423 170.895 48.423C170.28 48.423 169.773 48.644 169.374 49.086C168.984 49.528 168.789 50.0827 168.789 50.75C168.789 51.4087 168.984 51.9633 169.374 52.414ZM185.282 52.973V55.638H184.229V54H175.753V47.5H176.871V52.973H179.458V47.5H180.576V52.973H183.163V47.5H184.281V52.973H185.282ZM187.786 54H186.785V47.5H187.903V52.271L191.569 47.5H192.557V54H191.452V49.229L187.786 54ZM197.451 54.13C196.506 54.13 195.722 53.8093 195.098 53.168C194.483 52.5267 194.175 51.7207 194.175 50.75C194.175 49.7707 194.474 48.9647 195.072 48.332C195.679 47.6907 196.48 47.37 197.477 47.37C198.482 47.37 199.271 47.7253 199.843 48.436C200.415 49.1467 200.666 50.0177 200.597 51.049H195.306C195.323 51.6383 195.54 52.1323 195.956 52.531C196.372 52.921 196.875 53.116 197.464 53.116C198.348 53.116 198.976 52.752 199.349 52.024H200.493C200.328 52.6307 199.977 53.1333 199.44 53.532C198.903 53.9307 198.24 54.13 197.451 54.13ZM198.725 48.826C198.37 48.514 197.941 48.358 197.438 48.358C196.935 48.358 196.485 48.5097 196.086 48.813C195.696 49.1163 195.453 49.567 195.358 50.165H199.414C199.31 49.5757 199.08 49.1293 198.725 48.826ZM209.387 54V48.527H207.32V47.5H212.663V48.527H210.505V54H209.387ZM216.519 54.13C215.575 54.13 214.79 53.8093 214.166 53.168C213.551 52.5267 213.243 51.7207 213.243 50.75C213.243 49.7707 213.542 48.9647 214.14 48.332C214.747 47.6907 215.549 47.37 216.545 47.37C217.551 47.37 218.339 47.7253 218.911 48.436C219.483 49.1467 219.735 50.0177 219.665 51.049H214.374C214.392 51.6383 214.608 52.1323 215.024 52.531C215.44 52.921 215.943 53.116 216.532 53.116C217.416 53.116 218.045 52.752 218.417 52.024H219.561C219.397 52.6307 219.046 53.1333 218.508 53.532C217.971 53.9307 217.308 54.13 216.519 54.13ZM217.793 48.826C217.438 48.514 217.009 48.358 216.506 48.358C216.004 48.358 215.553 48.5097 215.154 48.813C214.764 49.1163 214.522 49.567 214.426 50.165H218.482C218.378 49.5757 218.149 49.1293 217.793 48.826ZM225.393 54L223.417 51.543L221.441 54H220.05L222.715 50.711L220.271 47.5H221.623L223.417 49.853L225.198 47.5H226.563L224.106 50.711L226.771 54H225.393ZM227.918 54V47.5H229.036V50.178H232.585V47.5H233.703V54H232.585V51.192H229.036V54H227.918ZM238.701 54.13C237.721 54.13 236.907 53.805 236.257 53.155C235.615 52.4963 235.295 51.6947 235.295 50.75C235.295 49.8053 235.615 49.008 236.257 48.358C236.907 47.6993 237.721 47.37 238.701 47.37C239.671 47.37 240.477 47.6993 241.119 48.358C241.769 49.008 242.094 49.8053 242.094 50.75C242.094 51.6947 241.769 52.4963 241.119 53.155C240.477 53.805 239.671 54.13 238.701 54.13ZM237.063 52.414C237.487 52.8647 238.033 53.09 238.701 53.09C239.368 53.09 239.91 52.8647 240.326 52.414C240.742 51.9633 240.95 51.4087 240.95 50.75C240.95 50.0913 240.742 49.5367 240.326 49.086C239.91 48.6353 239.368 48.41 238.701 48.41C238.033 48.41 237.487 48.6353 237.063 49.086C236.647 49.5367 236.439 50.0913 236.439 50.75C236.439 51.4087 236.647 51.9633 237.063 52.414ZM243.402 54.091C243.107 54.091 242.912 54.078 242.817 54.052V53.051C242.878 53.0683 243.016 53.077 243.233 53.077C243.502 53.077 243.701 52.986 243.831 52.804C243.961 52.6133 244.026 52.2797 244.026 51.803V47.5H249.044V54H247.926V48.527H245.144V52.037C245.144 52.7043 244.984 53.2157 244.663 53.571C244.342 53.9177 243.922 54.091 243.402 54.091ZM254.049 54.13C253.07 54.13 252.255 53.805 251.605 53.155C250.964 52.4963 250.643 51.6947 250.643 50.75C250.643 49.8053 250.964 49.008 251.605 48.358C252.255 47.6993 253.07 47.37 254.049 47.37C255.02 47.37 255.826 47.6993 256.467 48.358C257.117 49.008 257.442 49.8053 257.442 50.75C257.442 51.6947 257.117 52.4963 256.467 53.155C255.826 53.805 255.02 54.13 254.049 54.13ZM252.411 52.414C252.836 52.8647 253.382 53.09 254.049 53.09C254.717 53.09 255.258 52.8647 255.674 52.414C256.09 51.9633 256.298 51.4087 256.298 50.75C256.298 50.0913 256.09 49.5367 255.674 49.086C255.258 48.6353 254.717 48.41 254.049 48.41C253.382 48.41 252.836 48.6353 252.411 49.086C251.995 49.5367 251.787 50.0913 251.787 50.75C251.787 51.4087 251.995 51.9633 252.411 52.414ZM259.047 54V47.5H263.116V48.527H260.165V54H259.047ZM265.393 54H264.392V47.5H265.51V52.271L269.176 47.5H270.164V54H269.059V49.229L265.393 54ZM273.289 54H272.288V47.5H273.406V52.271L277.072 47.5H278.06V54H276.955V49.229L273.289 54Z" fill="#555555"/>
<defs>
<linearGradient id="paint0_linear_1_1747" x1="30.837" y1="37.3149" x2="28.0404" y2="65.9614" gradientUnits="userSpaceOnUse">
<stop stop-color="#1EA99E"/>
<stop offset="0.359375" stop-color="#D0FEFA"/>
<stop offset="1" stop-color="#1EA99E"/>
</linearGradient>
<linearGradient id="paint1_linear_1_1747" x1="32.8771" y1="57.6167" x2="27.4127" y2="64.728" gradientUnits="userSpaceOnUse">
<stop stop-color="#188C83"/>
<stop offset="1" stop-color="white" stop-opacity="0"/>
</linearGradient>
<linearGradient id="paint2_linear_1_1747" x1="42.7442" y1="26.0106" x2="33.7334" y2="57.2715" gradientUnits="userSpaceOnUse">
<stop stop-color="#2D63C8"/>
<stop offset="1" stop-color="#08A7FA"/>
</linearGradient>
<radialGradient id="paint3_radial_1_1747" cx="0" cy="0" r="1" gradientUnits="userSpaceOnUse" gradientTransform="translate(19.2212 9.37259) rotate(-117.029) scale(10.5468 5.16135)">
<stop stop-color="#2AAFA4"/>
<stop offset="0.558139" stop-color="#D0FDF9"/>
<stop offset="1" stop-color="#2AAFA4"/>
</radialGradient>
<linearGradient id="paint4_linear_1_1747" x1="14.7177" y1="2.83483" x2="17.9602" y2="13.4489" gradientUnits="userSpaceOnUse">
<stop stop-color="#ADFFF8"/>
<stop offset="1" stop-color="#1EA99E"/>
</linearGradient>
<linearGradient id="paint5_linear_1_1747" x1="34.6159" y1="-1.55136" x2="44.4231" y2="26.344" gradientUnits="userSpaceOnUse">
<stop stop-color="#00AFFF"/>
<stop offset="1" stop-color="#4268D5"/>
</linearGradient>
<linearGradient id="paint6_linear_1_1747" x1="37.4902" y1="16.7087" x2="32.5036" y2="21.3065" gradientUnits="userSpaceOnUse">
<stop stop-color="white" stop-opacity="0.73"/>
<stop offset="1" stop-color="white" stop-opacity="0"/>
</linearGradient>
<linearGradient id="paint7_linear_1_1747" x1="45.6891" y1="42.0101" x2="40.344" y2="40.2711" gradientUnits="userSpaceOnUse">
<stop stop-color="white" stop-opacity="0.18"/>
<stop offset="1" stop-color="white" stop-opacity="0"/>
</linearGradient>
<linearGradient id="paint8_linear_1_1747" x1="28.1047" y1="32.3821" x2="9.50973" y2="52.1129" gradientUnits="userSpaceOnUse">
<stop stop-color="#0D9FF4"/>
<stop offset="1" stop-color="#2B67CB"/>
</linearGradient>
<linearGradient id="paint9_linear_1_1747" x1="9.41277" y1="46.8023" x2="15.8757" y2="40.9881" gradientUnits="userSpaceOnUse">
<stop stop-color="white" stop-opacity="0.25"/>
<stop offset="1" stop-color="white" stop-opacity="0"/>
</linearGradient>
<linearGradient id="paint10_linear_1_1747" x1="20.4197" y1="15.5873" x2="10.5179" y2="37.0998" gradientUnits="userSpaceOnUse">
<stop stop-color="#06AAFC"/>
<stop offset="1" stop-color="#1B4CAA"/>
</linearGradient>
</defs>
</svg>
