<svg width="278" height="31" viewBox="0 0 278 31" fill="none" xmlns="http://www.w3.org/2000/svg">
<path d="M7.792 10.664C8.51733 11.3467 8.88 12.2107 8.88 13.256C8.88 14.3013 8.51733 15.1653 7.792 15.848C7.07733 16.52 6.13867 16.856 4.976 16.856H2.992V21H1.504V9.64H4.976C6.13867 9.64 7.07733 9.98133 7.792 10.664ZM6.752 14.856C7.18933 14.44 7.408 13.9067 7.408 13.256C7.408 12.6053 7.18933 12.072 6.752 11.656C6.32533 11.24 5.73333 11.032 4.976 11.032H2.992V15.48H4.976C5.73333 15.48 6.32533 15.272 6.752 14.856ZM13.7326 21.16C12.6233 21.16 11.69 20.7547 10.9326 19.944C10.186 19.1333 9.81263 18.152 9.81263 17C9.81263 15.848 10.186 14.8667 10.9326 14.056C11.69 13.2453 12.6233 12.84 13.7326 12.84C14.3193 12.84 14.8633 12.9733 15.3646 13.24C15.8766 13.496 16.2713 13.8267 16.5486 14.232V13H17.9246V21H16.5486V19.768C16.2713 20.1733 15.8766 20.5093 15.3646 20.776C14.8633 21.032 14.3193 21.16 13.7326 21.16ZM13.9406 19.896C14.73 19.896 15.3806 19.6187 15.8926 19.064C16.4046 18.5093 16.6606 17.8213 16.6606 17C16.6606 16.1787 16.4046 15.4907 15.8926 14.936C15.3806 14.3813 14.73 14.104 13.9406 14.104C13.1406 14.104 12.4846 14.3813 11.9726 14.936C11.4606 15.4907 11.2046 16.1787 11.2046 17C11.2046 17.8213 11.4606 18.5093 11.9726 19.064C12.4846 19.6187 13.1406 19.896 13.9406 19.896ZM23.0588 21.16C22.2374 21.16 21.5174 20.9573 20.8988 20.552C20.2908 20.1467 19.9121 19.576 19.7628 18.84H21.1548C21.4214 19.608 22.0561 19.992 23.0588 19.992C23.6454 19.992 24.0881 19.8693 24.3868 19.624C24.6854 19.3787 24.8348 19.0587 24.8348 18.664C24.8348 18.2693 24.6854 17.96 24.3868 17.736C24.0988 17.512 23.6828 17.4 23.1388 17.4H22.2108V16.28H23.1388C23.5761 16.28 23.9228 16.184 24.1788 15.992C24.4454 15.8 24.5788 15.5173 24.5788 15.144C24.5788 14.7813 24.4401 14.4987 24.1628 14.296C23.8854 14.0933 23.5121 13.992 23.0428 13.992C22.1148 13.992 21.5334 14.3653 21.2988 15.112H19.9388C20.0881 14.376 20.4508 13.816 21.0268 13.432C21.6028 13.0373 22.2801 12.84 23.0588 12.84C23.9548 12.84 24.6534 13.0533 25.1548 13.48C25.6561 13.896 25.9068 14.424 25.9068 15.064C25.9068 15.8427 25.5761 16.424 24.9148 16.808C25.7894 17.2027 26.2268 17.8587 26.2268 18.776C26.2268 19.448 25.9494 20.0133 25.3948 20.472C24.8401 20.9307 24.0614 21.16 23.0588 21.16ZM29.6408 24.344H28.2648V13H29.6408V14.232C29.9181 13.8267 30.3074 13.496 30.8088 13.24C31.3208 12.9733 31.8701 12.84 32.4568 12.84C33.5661 12.84 34.4941 13.2453 35.2408 14.056C35.9981 14.8667 36.3767 15.848 36.3767 17C36.3767 18.152 35.9981 19.1333 35.2408 19.944C34.4941 20.7547 33.5661 21.16 32.4568 21.16C31.8701 21.16 31.3208 21.032 30.8088 20.776C30.3074 20.5093 29.9181 20.1733 29.6408 19.768V24.344ZM30.2968 19.064C30.8088 19.6187 31.4594 19.896 32.2488 19.896C33.0381 19.896 33.6888 19.6187 34.2008 19.064C34.7128 18.5093 34.9688 17.8213 34.9688 17C34.9688 16.1787 34.7128 15.4907 34.2008 14.936C33.6888 14.3813 33.0381 14.104 32.2488 14.104C31.4594 14.104 30.8088 14.3813 30.2968 14.936C29.7848 15.4907 29.5288 16.1787 29.5288 17C29.5288 17.8213 29.7848 18.5093 30.2968 19.064ZM41.6545 21.16C40.5452 21.16 39.6118 20.7547 38.8545 19.944C38.1078 19.1333 37.7345 18.152 37.7345 17C37.7345 15.848 38.1078 14.8667 38.8545 14.056C39.6118 13.2453 40.5452 12.84 41.6545 12.84C42.2412 12.84 42.7852 12.9733 43.2865 13.24C43.7985 13.496 44.1932 13.8267 44.4705 14.232V13H45.8465V21H44.4705V19.768C44.1932 20.1733 43.7985 20.5093 43.2865 20.776C42.7852 21.032 42.2412 21.16 41.6545 21.16ZM41.8625 19.896C42.6518 19.896 43.3025 19.6187 43.8145 19.064C44.3265 18.5093 44.5825 17.8213 44.5825 17C44.5825 16.1787 44.3265 15.4907 43.8145 14.936C43.3025 14.3813 42.6518 14.104 41.8625 14.104C41.0625 14.104 40.4065 14.3813 39.8945 14.936C39.3825 15.4907 39.1265 16.1787 39.1265 17C39.1265 17.8213 39.3825 18.5093 39.8945 19.064C40.4065 19.6187 41.0625 19.896 41.8625 19.896ZM52.2766 21.16C51.018 21.16 50.01 20.744 49.2526 19.912C48.506 19.08 48.1326 17.9867 48.1326 16.632V15.816C48.1326 13.8533 48.4846 12.3867 49.1886 11.416C49.8926 10.4347 51.0446 9.78933 52.6446 9.48L55.6206 8.936V10.248L52.9486 10.744C51.8073 10.9467 50.9806 11.3307 50.4686 11.896C49.9673 12.4613 49.6526 13.2933 49.5246 14.392C50.218 13.464 51.1993 13 52.4686 13C53.674 13 54.6393 13.384 55.3646 14.152C56.1006 14.92 56.4686 15.8587 56.4686 16.968C56.4686 18.1413 56.0686 19.1333 55.2686 19.944C54.4793 20.7547 53.482 21.16 52.2766 21.16ZM50.2926 19.064C50.8046 19.608 51.466 19.88 52.2766 19.88C53.0873 19.88 53.754 19.608 54.2766 19.064C54.7993 18.52 55.0606 17.8213 55.0606 16.968C55.0606 16.168 54.7993 15.5173 54.2766 15.016C53.7646 14.504 53.1086 14.248 52.3086 14.248C51.4873 14.248 50.8153 14.5093 50.2926 15.032C49.7806 15.544 49.5246 16.1893 49.5246 16.968C49.5246 17.8213 49.7806 18.52 50.2926 19.064ZM61.9886 21.16C60.7833 21.16 59.7806 20.76 58.9806 19.96C58.1913 19.1493 57.7966 18.1627 57.7966 17C57.7966 15.8373 58.1913 14.856 58.9806 14.056C59.7806 13.2453 60.7833 12.84 61.9886 12.84C63.1833 12.84 64.1753 13.2453 64.9646 14.056C65.7646 14.856 66.1646 15.8373 66.1646 17C66.1646 18.1627 65.7646 19.1493 64.9646 19.96C64.1753 20.76 63.1833 21.16 61.9886 21.16ZM59.9726 19.048C60.4953 19.6027 61.1673 19.88 61.9886 19.88C62.81 19.88 63.4766 19.6027 63.9886 19.048C64.5006 18.4933 64.7566 17.8107 64.7566 17C64.7566 16.1893 64.5006 15.5067 63.9886 14.952C63.4766 14.3973 62.81 14.12 61.9886 14.12C61.1673 14.12 60.4953 14.3973 59.9726 14.952C59.4606 15.5067 59.2046 16.1893 59.2046 17C59.2046 17.8107 59.4606 18.4933 59.9726 19.048ZM69.441 21V14.264H66.897V13H73.473V14.264H70.817V21H69.441ZM78.1233 21.16C77.0139 21.16 76.0806 20.7547 75.3233 19.944C74.5766 19.1333 74.2033 18.152 74.2033 17C74.2033 15.848 74.5766 14.8667 75.3233 14.056C76.0806 13.2453 77.0139 12.84 78.1233 12.84C78.7099 12.84 79.2539 12.9733 79.7553 13.24C80.2673 13.496 80.6619 13.8267 80.9393 14.232V13H82.3153V21H80.9393V19.768C80.6619 20.1733 80.2673 20.5093 79.7553 20.776C79.2539 21.032 78.7099 21.16 78.1233 21.16ZM78.3313 19.896C79.1206 19.896 79.7713 19.6187 80.2833 19.064C80.7953 18.5093 81.0513 17.8213 81.0513 17C81.0513 16.1787 80.7953 15.4907 80.2833 14.936C79.7713 14.3813 79.1206 14.104 78.3313 14.104C77.5313 14.104 76.8753 14.3813 76.3633 14.936C75.8513 15.4907 75.5953 16.1787 75.5953 17C75.5953 17.8213 75.8513 18.5093 76.3633 19.064C76.8753 19.6187 77.5313 19.896 78.3313 19.896ZM84.9054 21V13H86.2814V16.296H90.6494V13H92.0254V21H90.6494V17.544H86.2814V21H84.9054ZM98.1761 21.16C96.9708 21.16 95.9681 20.76 95.1681 19.96C94.3788 19.1493 93.9841 18.1627 93.9841 17C93.9841 15.8373 94.3788 14.856 95.1681 14.056C95.9681 13.2453 96.9708 12.84 98.1761 12.84C99.3708 12.84 100.363 13.2453 101.152 14.056C101.952 14.856 102.352 15.8373 102.352 17C102.352 18.1627 101.952 19.1493 101.152 19.96C100.363 20.76 99.3708 21.16 98.1761 21.16ZM96.1601 19.048C96.6828 19.6027 97.3548 19.88 98.1761 19.88C98.9975 19.88 99.6641 19.6027 100.176 19.048C100.688 18.4933 100.944 17.8107 100.944 17C100.944 16.1893 100.688 15.5067 100.176 14.952C99.6641 14.3973 98.9975 14.12 98.1761 14.12C97.3548 14.12 96.6828 14.3973 96.1601 14.952C95.6481 15.5067 95.3921 16.1893 95.3921 17C95.3921 17.8107 95.6481 18.4933 96.1601 19.048Z" fill="#7E838C"/>
<path d="M162.96 16.284V21H160.746V8.4C161.37 8.4 162.048 8.394 162.78 8.382C163.512 8.37 164.112 8.364 164.58 8.364C167.628 8.364 169.152 9.66 169.152 12.252C169.152 13.212 168.906 14.004 168.414 14.628C167.922 15.228 167.358 15.636 166.722 15.852L170.664 21H167.982L164.508 16.284H162.96ZM164.472 10.434C164.412 10.434 164.316 10.44 164.184 10.452C164.052 10.452 163.866 10.458 163.626 10.47C163.386 10.47 163.164 10.47 162.96 10.47V14.214H164.4C165.108 14.214 165.684 14.04 166.128 13.692C166.584 13.344 166.812 12.87 166.812 12.27C166.812 11.046 166.032 10.434 164.472 10.434ZM177.615 18.732L178.209 20.19C177.405 20.862 176.373 21.198 175.113 21.198C173.817 21.198 172.761 20.808 171.945 20.028C171.153 19.26 170.757 18.234 170.757 16.95C170.757 15.75 171.147 14.742 171.927 13.926C172.707 13.11 173.745 12.702 175.041 12.702C176.109 12.702 177.015 13.056 177.759 13.764C178.503 14.472 178.875 15.372 178.875 16.464C178.875 16.944 178.833 17.316 178.749 17.58H172.899C172.983 18.168 173.241 18.63 173.673 18.966C174.117 19.302 174.669 19.47 175.329 19.47C176.229 19.47 176.991 19.224 177.615 18.732ZM174.951 14.43C173.775 14.43 173.067 15.018 172.827 16.194H176.805C176.817 15.678 176.649 15.258 176.301 14.934C175.965 14.598 175.515 14.43 174.951 14.43ZM188.266 24.6H186.196V20.586C185.572 20.994 184.906 21.198 184.198 21.198C182.914 21.198 181.888 20.814 181.12 20.046C180.364 19.266 179.986 18.234 179.986 16.95C179.986 15.738 180.424 14.73 181.3 13.926C182.188 13.11 183.298 12.702 184.63 12.702C186.022 12.702 187.234 13.026 188.266 13.674V24.6ZM184.468 19.272C185.164 19.272 185.74 19.026 186.196 18.534V15.042C185.656 14.778 185.128 14.646 184.612 14.646C183.868 14.646 183.28 14.874 182.848 15.33C182.416 15.774 182.2 16.344 182.2 17.04C182.2 17.688 182.404 18.222 182.812 18.642C183.232 19.062 183.784 19.272 184.468 19.272ZM195.801 12.9H197.871V21H195.801V20.01C195.153 20.802 194.289 21.198 193.209 21.198C192.345 21.198 191.655 20.91 191.139 20.334C190.623 19.758 190.365 18.93 190.365 17.85V12.9H192.435V17.418C192.435 18.654 192.951 19.272 193.983 19.272C194.691 19.272 195.297 18.942 195.801 18.282V12.9ZM206.531 18.732L207.125 20.19C206.321 20.862 205.289 21.198 204.029 21.198C202.733 21.198 201.677 20.808 200.861 20.028C200.069 19.26 199.673 18.234 199.673 16.95C199.673 15.75 200.063 14.742 200.843 13.926C201.623 13.11 202.661 12.702 203.957 12.702C205.025 12.702 205.931 13.056 206.675 13.764C207.419 14.472 207.791 15.372 207.791 16.464C207.791 16.944 207.749 17.316 207.665 17.58H201.815C201.899 18.168 202.157 18.63 202.589 18.966C203.033 19.302 203.585 19.47 204.245 19.47C205.145 19.47 205.907 19.224 206.531 18.732ZM203.867 14.43C202.691 14.43 201.983 15.018 201.743 16.194H205.721C205.733 15.678 205.565 15.258 205.217 14.934C204.881 14.598 204.431 14.43 203.867 14.43ZM209.189 15.168C209.189 14.412 209.465 13.812 210.017 13.368C210.569 12.924 211.283 12.702 212.159 12.702C213.479 12.702 214.505 13.044 215.237 13.728L214.463 15.204C213.803 14.688 213.071 14.43 212.267 14.43C211.979 14.43 211.739 14.502 211.547 14.646C211.355 14.778 211.259 14.94 211.259 15.132C211.259 15.528 211.769 15.858 212.789 16.122C213.161 16.206 213.491 16.302 213.779 16.41C214.067 16.506 214.361 16.65 214.661 16.842C214.973 17.022 215.213 17.262 215.381 17.562C215.549 17.862 215.633 18.21 215.633 18.606C215.633 19.398 215.333 20.028 214.733 20.496C214.145 20.964 213.353 21.198 212.357 21.198C211.649 21.198 210.959 21.048 210.287 20.748C209.603 20.436 209.165 20.124 208.973 19.812L209.981 18.462C210.209 18.738 210.587 18.972 211.115 19.164C211.655 19.368 212.117 19.47 212.501 19.47C212.969 19.518 213.299 19.368 213.491 19.02C213.683 18.66 213.557 18.366 213.113 18.138C212.933 18.042 212.651 17.94 212.267 17.832C211.895 17.724 211.547 17.616 211.223 17.508C210.911 17.388 210.587 17.238 210.251 17.058C209.927 16.878 209.669 16.632 209.477 16.32C209.285 15.996 209.189 15.612 209.189 15.168ZM217.277 17.922V10.65H219.347V12.9H221.957V14.844H219.347V17.796C219.347 18.768 219.671 19.254 220.319 19.254C220.727 19.254 221.141 19.098 221.561 18.786L222.191 20.388C221.531 20.916 220.733 21.18 219.797 21.18C218.921 21.18 218.279 20.916 217.871 20.388C217.475 19.848 217.277 19.026 217.277 17.922ZM228.649 21H228.496V9.1H228.683C229.171 9.1 229.624 9.09433 230.043 9.083C230.882 9.06033 231.381 9.049 231.539 9.049C232.684 9.049 233.693 9.20767 234.565 9.525C235.449 9.831 236.152 10.2617 236.673 10.817C237.195 11.361 237.58 11.9787 237.829 12.67C238.09 13.35 238.22 14.0867 238.22 14.88C238.22 16.6707 237.625 18.144 236.435 19.3C235.257 20.456 233.579 21.034 231.403 21.034C230.916 21.034 230.468 21.0283 230.06 21.017C229.652 21.0057 229.182 21 228.649 21ZM231.505 9.933C231.256 9.933 230.888 9.94433 230.4 9.967C229.924 9.97833 229.601 9.984 229.431 9.984V20.116C229.805 20.116 230.157 20.1217 230.485 20.133C230.814 20.133 231.052 20.1387 231.199 20.15C231.347 20.15 231.426 20.15 231.437 20.15C233.285 20.15 234.713 19.6627 235.721 18.688C236.73 17.702 237.234 16.4327 237.234 14.88C237.234 13.418 236.753 12.228 235.789 11.31C234.815 10.392 233.387 9.933 231.505 9.933ZM246.456 19.385L246.745 20.065C246.053 20.7903 245.113 21.153 243.923 21.153C242.699 21.153 241.718 20.7903 240.982 20.065C240.234 19.3397 239.86 18.3763 239.86 17.175C239.86 16.019 240.2 15.067 240.88 14.319C241.571 13.571 242.523 13.197 243.736 13.197C244.722 13.197 245.549 13.5143 246.218 14.149C246.875 14.7723 247.204 15.6053 247.204 16.648C247.204 16.92 247.187 17.158 247.153 17.362H240.846C240.88 18.28 241.18 19.0053 241.747 19.538C242.313 20.0593 243.056 20.32 243.974 20.32C245.039 20.32 245.866 20.0083 246.456 19.385ZM243.651 14.03C242.835 14.03 242.172 14.268 241.662 14.744C241.163 15.22 240.874 15.849 240.795 16.631H246.303C246.291 15.8263 246.048 15.1917 245.572 14.727C245.096 14.2623 244.455 14.03 243.651 14.03ZM253.28 18.994C253.28 18.6427 253.132 18.3593 252.838 18.144C252.554 17.9287 252.203 17.7587 251.784 17.634C251.376 17.5093 250.962 17.3733 250.543 17.226C250.123 17.0673 249.766 16.8237 249.472 16.495C249.188 16.155 249.047 15.73 249.047 15.22C249.047 14.608 249.273 14.1207 249.727 13.758C250.18 13.384 250.775 13.197 251.512 13.197C252.566 13.197 253.365 13.4803 253.909 14.047L253.535 14.71C253.013 14.2227 252.345 13.979 251.529 13.979C251.075 13.979 250.701 14.098 250.407 14.336C250.123 14.5627 249.982 14.8517 249.982 15.203C249.982 15.5657 250.123 15.866 250.407 16.104C250.701 16.3307 251.053 16.512 251.461 16.648C251.88 16.7727 252.299 16.9087 252.719 17.056C253.138 17.2033 253.489 17.4357 253.773 17.753C254.067 18.0703 254.215 18.4727 254.215 18.96C254.215 19.6513 253.954 20.1897 253.433 20.575C252.923 20.9603 252.265 21.153 251.461 21.153C250.962 21.153 250.441 21.0397 249.897 20.813C249.387 20.5977 249.035 20.3427 248.843 20.048L249.336 19.47C249.551 19.7307 249.874 19.946 250.305 20.116C250.747 20.286 251.166 20.371 251.563 20.371C252.061 20.371 252.469 20.252 252.787 20.014C253.115 19.7647 253.28 19.4247 253.28 18.994ZM257.733 21H256.849V13.35H257.733V21ZM256.696 10.375C256.696 10.205 256.758 10.069 256.883 9.967C257.008 9.865 257.155 9.814 257.325 9.814C257.472 9.814 257.603 9.87067 257.716 9.984C257.841 10.086 257.903 10.2163 257.903 10.375C257.903 10.5677 257.846 10.7207 257.733 10.834C257.631 10.9473 257.495 11.004 257.325 11.004C257.144 11.004 256.991 10.9473 256.866 10.834C256.753 10.7207 256.696 10.5677 256.696 10.375ZM259.752 22.122C259.752 21.544 259.956 21.0567 260.364 20.66C260.772 20.2633 261.35 19.9857 262.098 19.827C261.928 19.623 261.843 19.3793 261.843 19.096C261.843 18.8127 261.939 18.5577 262.132 18.331C261.633 18.1157 261.242 17.7927 260.959 17.362C260.675 16.9313 260.534 16.444 260.534 15.9C260.534 15.118 260.811 14.472 261.367 13.962C261.922 13.452 262.653 13.197 263.56 13.197C264.285 13.197 264.925 13.3897 265.481 13.775H265.498L267.674 13.197V14.03L266.127 14.421C266.433 14.8857 266.586 15.3787 266.586 15.9C266.586 16.6593 266.302 17.3053 265.736 17.838C265.169 18.348 264.444 18.603 263.56 18.603C263.242 18.603 262.987 18.5803 262.795 18.535C262.693 18.6823 262.642 18.8693 262.642 19.096C262.642 19.3567 262.715 19.5607 262.863 19.708C263.293 19.6853 263.531 19.674 263.577 19.674C264.744 19.674 265.673 19.8893 266.365 20.32C267.056 20.7507 267.402 21.3513 267.402 22.122C267.402 22.8813 267.056 23.4707 266.365 23.89C265.673 24.3207 264.744 24.536 263.577 24.536C262.398 24.536 261.463 24.3263 260.772 23.907C260.092 23.4877 259.752 22.8927 259.752 22.122ZM260.653 22.122C260.653 22.6207 260.913 23.0117 261.435 23.295C261.967 23.5897 262.681 23.737 263.577 23.737C264.461 23.737 265.169 23.5897 265.702 23.295C266.234 23.0003 266.501 22.6093 266.501 22.122C266.501 21.6233 266.234 21.2267 265.702 20.932C265.18 20.626 264.472 20.473 263.577 20.473C262.693 20.473 261.984 20.6203 261.452 20.915C260.919 21.2097 260.653 21.612 260.653 22.122ZM262.03 14.54C261.633 14.9027 261.435 15.356 261.435 15.9C261.435 16.444 261.633 16.8973 262.03 17.26C262.426 17.6227 262.936 17.804 263.56 17.804C264.183 17.804 264.693 17.6227 265.09 17.26C265.486 16.8973 265.685 16.444 265.685 15.9C265.685 15.356 265.481 14.9027 265.073 14.54C264.676 14.1773 264.172 13.996 263.56 13.996C262.959 13.996 262.449 14.1773 262.03 14.54ZM270.075 21H269.191V13.35H270.075V14.421C270.392 14.0697 270.8 13.7807 271.299 13.554C271.809 13.3273 272.319 13.214 272.829 13.214C273.894 13.214 274.693 13.4917 275.226 14.047C275.758 14.6023 276.025 15.4637 276.025 16.631V21H275.141V16.801C275.141 14.965 274.302 14.047 272.625 14.047C272.137 14.047 271.661 14.1603 271.197 14.387C270.732 14.6023 270.358 14.88 270.075 15.22V21Z" fill="#2B2E34"/>
<rect x="121" y="15.5" width="21.9203" height="21.9203" rx="3" transform="rotate(-45 121 15.5)" fill="#242424"/>
<circle cx="136.535" cy="15.5" r="8.87694" fill="#FCFCFC"/>
<rect x="130.987" y="9.95215" width="11.1751" height="11.1751" rx="3" fill="#242424"/>
<circle cx="136.519" cy="15.4847" r="3.86829" fill="#FCFCFC"/>
<rect x="134.87" y="15.5" width="2.50739" height="2.50739" rx="1" transform="rotate(-45 134.87 15.5)" fill="#242424"/>
</svg>
