<svg width="21" height="23" viewBox="0 0 21 23" fill="none" xmlns="http://www.w3.org/2000/svg">
<path d="M15.2611 7.33331V7.43331H15.3611H20.1222V21.2847C20.1222 21.61 19.993 21.9219 19.763 22.1519C19.5331 22.3819 19.2211 22.5111 18.8959 22.5111H2.10418C1.77892 22.5111 1.46699 22.3819 1.23699 22.1519C1.007 21.9219 0.877794 21.61 0.877794 21.2847V7.43331H4.15002V8.6222H2.16668H2.06668V8.7222V21.2222V21.3222H2.16668H18.8334H18.9334V21.2222V8.7222V8.6222H18.8334H15.3611H15.2611V8.7222V10.1111C15.2611 10.2687 15.1985 10.4199 15.087 10.5314C14.9755 10.6429 14.8243 10.7055 14.6667 10.7055C14.509 10.7055 14.3578 10.6429 14.2464 10.5314C14.1349 10.4199 14.0722 10.2687 14.0722 10.1111V5.2847C14.0722 4.33728 13.6959 3.42867 13.026 2.75875C12.356 2.08883 11.4474 1.71247 10.5 1.71247C9.55261 1.71247 8.644 2.08883 7.97408 2.75875C7.30415 3.42867 6.9278 4.33728 6.9278 5.2847V7.33331V7.43331H7.0278H12.4834V8.6222H7.0278H6.9278V8.7222V10.1458C6.9278 10.3035 6.86517 10.4547 6.75369 10.5661C6.64221 10.6776 6.49101 10.7402 6.33335 10.7402C6.17569 10.7402 6.02449 10.6776 5.91301 10.5661C5.80153 10.4547 5.73891 10.3035 5.73891 10.1458V5.2847C5.73891 4.65946 5.86206 4.04034 6.10132 3.4627C6.34059 2.88505 6.69129 2.36019 7.1334 1.91808C7.57551 1.47597 8.10037 1.12527 8.67802 0.886002C9.25566 0.646734 9.87478 0.523584 10.5 0.523584C11.1253 0.523584 11.7444 0.646734 12.322 0.886002C12.8997 1.12527 13.4245 1.47597 13.8666 1.91808C14.3087 2.36019 14.6594 2.88505 14.8987 3.4627C15.138 4.04034 15.2611 4.65946 15.2611 5.2847V7.33331Z" fill="white" stroke="white" stroke-width="0.2"/>
</svg>
